Coordinates
version=1
nRows=14
nColumns=36
inDegrees=yes

Units are S.I. units (second, meters, Newtons, ...)
If the header above contains a line with 'inDegrees', this indicates whether rotational values are in degrees (yes) or radians (no).

endheader
time	pelvis_tilt	pelvis_list	pelvis_rotation	pelvis_tx	pelvis_ty	pelvis_tz	hip_flexion_r	hip_adduction_r	hip_rotation_r	knee_angle_r	knee_angle_r_beta	ankle_angle_r	subtalar_angle_r	mtp_angle_r	hip_flexion_l	hip_adduction_l	hip_rotation_l	knee_angle_l	knee_angle_l_beta	ankle_angle_l	subtalar_angle_l	mtp_angle_l	lumbar_extension	lumbar_bending	lumbar_rotation	arm_flex_r	arm_add_r	arm_rot_r	elbow_flex_r	pro_sup_r	arm_flex_l	arm_add_l	arm_rot_l	elbow_flex_l	pro_sup_l
      1.61666670	    -20.24449696	      2.20419980	      0.42905431	      0.28138482	      1.02752986	     -0.06767750	     11.57261258	     -4.12946330	     -1.79415308	      0.08931691	      0.00155887	      6.56096611	     -5.67941750	     -7.49995208	     13.50124372	      0.30124370	      4.36709026	      2.75023028	      0.04800057	      4.99898419	     -6.56950288	     -7.49995208	     21.37871086	     -3.62976743	     -2.17408697	    -13.91485525	     -9.97843818	     15.12446029	     35.02669201	     59.83634219	     -9.29204915	    -10.98714550	     14.73698505	     27.79558410	     72.55672935
      1.63333330	    -20.18369635	      2.00136470	      0.56340815	      0.26972223	      1.02671316	     -0.06222764	     11.60618230	     -3.87651965	     -1.92927039	      0.09153768	      0.00159763	      6.79794832	     -5.62195099	     -7.49995723	     13.84850262	      0.09182698	      4.39416017	      3.17022524	      0.05533087	      5.08528069	     -6.71350680	     -7.49995723	     20.91907312	     -3.62303084	     -2.36079421	    -13.66119791	     -9.84705708	     14.77634125	     35.41735841	     59.90669704	     -9.34333332	    -11.16154060	     14.75046118	     28.00811694	     72.37238610
      1.65000000	    -20.13396394	      1.94560421	      0.64527218	      0.26993956	      1.02640765	     -0.06204747	     11.67218832	     -3.77082653	     -2.10025129	      0.09186590	      0.00160336	      7.17435967	     -5.28214471	     -7.49996239	     14.12009376	     -0.01477219	      4.19391265	      3.42019968	      0.05969375	      5.24873194	     -6.37486534	     -7.49996239	     20.50678876	     -3.74371165	     -2.31895427	    -13.41128781	     -9.65602807	     14.54657492	     35.73774235	     59.99221176	     -9.20472459	    -11.32511879	     14.73333593	     28.01668664	     72.23039164
      1.66666670	    -20.47679531	      1.86733462	      0.73672698	      0.26948128	      1.02573683	     -0.06250275	     12.15790899	     -3.66514653	     -2.21828179	      0.09206100	      0.00160677	      7.29423165	     -5.13087024	     -7.49996515	     14.79200383	     -0.13322034	      4.06308494	      3.67963432	      0.06422173	      5.46541699	     -5.92205507	     -7.49996515	     20.66430408	     -3.77812717	     -2.39303987	    -13.47284528	     -9.62899546	     14.39541482	     36.59308526	     60.00272040	     -9.49810282	    -11.54029351	     14.69227198	     28.75975502	     71.92254397
      1.68333330	    -20.16599826	      1.79931217	      0.83753214	      0.26975993	      1.02604176	     -0.06223906	     11.92462895	     -3.56917072	     -2.45312888	      0.09108178	      0.00158968	      7.69387732	     -4.96365433	     -7.49997067	     14.74416982	     -0.25696578	      3.86533346	      3.87359038	      0.06760691	      5.25722604	     -6.01314131	     -7.49997067	     20.07362008	     -3.82591408	     -2.51807300	    -13.07435323	     -9.40116037	     14.09395370	     36.41030970	     60.11510505	     -9.17598362	    -11.55024518	     14.69062952	     28.08674117	     71.76119431
      1.70000000	    -20.07980375	      1.52578264	      1.05850572	      0.24969228	      1.02493113	     -0.06367739	     12.07102742	     -3.28968181	     -2.59038902	      0.09585557	      0.00167300	      7.86329040	     -5.16840853	     -7.49997525	     15.31810107	     -0.52448426	      3.88932296	      4.46700498	      0.07796394	      5.32674928	     -6.16107261	     -7.49997525	     19.28484360	     -3.72954873	     -2.88963223	    -12.63593073	     -9.31062927	     13.69504636	     36.73850733	     60.23324981	     -8.66824601	    -11.71764938	     14.72229018	     28.32101598	     71.34953357
      1.71666670	    -20.13895271	      1.41567562	      1.23405139	      0.25003722	      1.02454025	     -0.06354309	     12.40990416	     -3.19729546	     -3.09643907	      0.09850891	      0.00171930	      8.28089961	     -4.52355162	     -7.49998219	     15.94951372	     -0.67208866	      3.58108365	      4.82735209	      0.08425319	      5.45842832	     -5.72527487	     -7.49998219	     18.86333861	     -3.74924004	     -2.48336456	    -12.60182797	     -9.33457980	     13.43983177	     36.98910606	     61.26711113	     -7.30342893	    -11.94738444	     16.41116038	     27.34804215	     73.83644495
      1.73333330	    -20.22000039	      1.36254952	      1.34299876	      0.24975589	      1.02459216	     -0.06382938	     12.75169874	     -3.16272457	     -3.25521002	      0.10067980	      0.00175719	      8.49091673	     -4.40650213	     -7.49998585	     16.49314131	     -0.76818716	      3.23946000	      5.13350867	      0.08959663	      5.52093585	     -5.40382794	     -7.49998585	     18.51920109	     -3.77529847	     -2.60184546	    -12.29865860	     -9.25794920	     13.01069452	     36.77548870	     61.51393533	     -6.89021225	    -12.01709224	     16.24898619	     27.39933325	     73.25343259
      1.75000000	    -20.08458941	      1.12098547	      1.56001787	      0.23077438	      1.02383414	     -0.06452300	     12.98915947	     -2.94490704	     -3.35801724	      0.11007115	      0.00192110	      8.35283167	     -4.78846939	     -7.49998866	     17.20630097	     -1.00427783	      2.93760236	      5.88285509	      0.10267519	      5.76694494	     -5.11032396	     -7.49998866	     17.32699452	     -3.66851738	     -3.08547871	    -11.54910771	     -9.27371980	     12.69361505	     37.13172743	     61.53937143	     -6.21673885	    -12.24885542	     16.21045116	     28.17454678	     72.44847633
      1.76666670	    -20.18298760	      1.06182004	      1.66487130	      0.23089065	      1.02393979	     -0.06497775	     13.44398388	     -2.93173199	     -3.71193164	      0.11789324	      0.00205763	      8.50589392	     -4.31176484	     -7.49998935	     18.04364936	     -1.10064928	      2.37967491	      6.43707233	      0.11234811	      6.17026915	     -4.19850636	     -7.49998935	     16.72382489	     -3.68338282	     -2.79388272	    -10.92526645	     -9.35941211	     13.10669472	     36.86698242	     62.04229674	     -4.94053153	    -12.31785388	     16.92240125	     27.77299645	     73.23382825
      1.78333330	    -20.25396554	      1.01563487	      1.75356911	      0.23170796	      1.02420818	     -0.06458462	     13.79780250	     -2.90764844	     -3.89508891	      0.12551947	      0.00219073	      8.41815528	     -4.17449151	     -7.49999074	     18.74037790	     -1.17165518	      1.88169166	      6.93690442	      0.12107182	      6.21448520	     -3.68288518	     -7.49999074	     16.13648728	     -3.67549810	     -2.75744352	    -10.64833200	     -9.38567864	     13.15263560	     37.00768247	     62.37303032	     -4.31223968	    -12.45628788	     17.22888642	     28.09936273	     73.21983466
      1.80000000	    -20.43691612	      0.94129258	      1.80605063	      0.23155684	      1.02442503	     -0.06500864	     14.21451549	     -2.86191475	     -3.97733879	      0.13438185	      0.00234541	      8.23073499	     -4.17317292	     -7.49999259	     19.47820984	     -1.27860546	      1.37473374	      7.47841387	      0.13052294	      6.33183039	     -2.92520293	     -7.49999259	     15.99162158	     -3.58786274	     -2.34365325	    -10.70215539	     -9.51858431	     13.49085290	     37.07637441	     64.10536598	     -3.33884988	    -12.52062957	     18.55357655	     27.49424256	     75.45743952
      1.81666670	    -20.30118323	      0.81490252	      1.84096331	      0.22354172	      1.02437224	     -0.07145543	     14.35142243	     -2.79106624	     -3.94852041	      0.14483347	      0.00252782	      7.67596872	     -4.51525919	     -7.49999404	     19.83741044	     -1.37563398	      1.13632871	      7.97870609	      0.13925469	      6.24829519	     -2.32150661	     -7.49999404	     15.15808948	     -3.35808090	     -2.53639128	    -10.28802963	     -9.49455802	     13.08479651	     37.15540723	     63.89914719	     -3.02735316	    -12.39488017	     17.93874906	     28.21206119	     73.88500887
      1.83333330	    -20.52126922	      0.62334608	      1.84722163	      0.21224696	      1.02371570	     -0.06565047	     14.96877589	     -2.61340983	     -4.07087172	      0.17115258	      0.00298718	      7.40036854	     -4.44794513	     -7.49999540	     20.95386516	     -1.60754848	      0.51893394	      9.02528062	      0.15752086	      6.60367182	     -1.63439545	     -7.49999540	     14.74038639	     -3.17675815	     -2.42879080	     -9.65283532	     -9.78648495	     14.20163773	     37.09288918	     65.38488938	     -2.00314466	    -12.31848586	     18.96708011	     27.39282529	     75.50923604
